<?xml version="1.0" standalone="no"?>
<!DOCTYPE svg PUBLIC "-//W3C//DTD SVG 20010904//EN"
 "http://www.w3.org/TR/2001/REC-SVG-20010904/DTD/svg10.dtd">
<svg version="1.0" xmlns="http://www.w3.org/2000/svg"
 width="400.000000pt" height="200.000000pt" viewBox="0 0 400.000000 200.000000"
 preserveAspectRatio="xMidYMid meet">

<g transform="translate(0.000000,200.000000) scale(0.100000,-0.100000)"
fill="#000000" stroke="none">
<path d="M0 1000 l0 -1000 2000 0 2000 0 0 1000 0 1000 -2000 0 -2000 0 0
-1000z m1828 902 c12 -8 22 -19 22 -24 0 -7 -4 -7 -12 0 -22 17 -76 24 -97 12
-18 -9 -20 -17 -15 -73 7 -72 -11 -62 -21 13 -3 25 -7 49 -8 54 -1 5 14 17 33
27 36 20 57 18 98 -9z m2 -102 c-6 -23 -13 -40 -15 -38 -2 2 1 23 7 46 6 24
13 41 15 38 2 -2 -1 -23 -7 -46z m-1391 -171 c112 -53 331 -219 331 -251 0 -7
-12 -31 -27 -53 l-28 -40 1 -275 1 -275 32 -46 32 -46 -45 -96 c-25 -52 -50
-98 -55 -102 -11 -6 -55 39 -105 109 l-33 47 5 155 5 154 -86 0 -85 0 -7 -62
c-22 -206 -117 -456 -247 -651 -34 -50 -41 -56 -58 -47 -28 15 -36 55 -16 84
41 63 79 202 116 421 27 159 29 355 6 463 -9 41 -13 78 -10 83 3 5 29 27 57
48 74 55 149 130 142 141 -9 15 -111 12 -148 -4 -18 -7 -55 -32 -84 -55 -29
-22 -57 -41 -62 -41 -5 0 -12 18 -16 40 -9 51 3 69 111 176 73 73 174 151 198
153 4 1 38 -13 75 -30z m1304 -166 c14 -4 10 -9 -20 -25 -21 -11 -42 -24 -46
-28 -14 -12 3 -52 18 -46 9 3 12 0 9 -8 -3 -7 4 -21 16 -31 18 -16 20 -30 20
-124 l1 -106 19 24 c16 19 20 38 20 107 0 68 3 84 15 84 12 0 15 -16 15 -85 0
-84 1 -86 39 -135 47 -59 98 -194 107 -282 l6 -63 -76 -150 c-42 -82 -82 -156
-89 -163 -11 -10 -22 -6 -60 23 l-46 35 -4 -33 -4 -32 -1 35 c-2 28 -10 41
-40 64 -20 17 -41 36 -46 44 -6 10 -19 -5 -47 -57 -22 -39 -45 -71 -52 -71 -7
0 -32 23 -56 51 l-44 52 11 56 c7 32 12 123 12 203 0 118 -3 152 -17 175 -16
28 -15 31 21 96 21 37 40 67 43 67 3 0 28 -16 55 -36 l50 -37 -6 -66 c-3 -36
-7 -130 -8 -207 -3 -128 -1 -144 16 -163 19 -21 20 -21 30 -4 6 10 12 85 13
171 2 146 3 154 28 186 24 32 25 37 25 194 0 105 -4 170 -12 188 -11 24 -16
26 -65 22 -54 -5 -63 1 -63 41 0 34 22 42 110 40 47 -1 93 -4 103 -6z m-499
-56 c9 -14 5 -27 -14 -60 -21 -36 -25 -58 -28 -147 l-3 -105 25 30 c20 25 28
28 43 19 53 -33 123 -235 123 -358 0 -56 -6 -73 -71 -201 -39 -77 -75 -144
-80 -150 -10 -11 -20 -5 -113 59 -31 21 -65 49 -75 62 -18 22 -18 28 -5 77 10
38 14 121 14 304 0 244 -6 303 -32 303 -5 0 -8 15 -6 32 2 27 11 37 47 56 24
13 67 41 94 63 53 42 64 44 81 16z m-282 -17 c-1 -14 -5 -181 -8 -371 l-7
-346 37 -37 37 -37 -29 -52 c-56 -101 -67 -117 -82 -116 -21 1 -130 129 -130
154 0 11 8 32 18 45 15 22 17 58 20 307 2 171 -1 297 -7 319 -13 45 -11 49 64
112 65 55 92 62 87 22z m559 -36 c33 -21 59 -44 59 -53 0 -25 -148 -174 -166
-167 -9 3 -13 14 -10 28 3 13 10 59 16 103 14 108 19 125 31 125 6 0 38 -16
70 -36z m356 -131 c-2 -21 -4 -4 -4 37 0 41 2 58 4 38 2 -21 2 -55 0 -75z m0
-75 c-3 -7 -5 -2 -5 12 0 14 2 19 5 13 2 -7 2 -19 0 -25z m213 -50 c23 -24 44
-38 46 -33 15 37 45 74 56 69 7 -4 41 -37 74 -74 l62 -67 -5 -169 c-5 -149 -4
-172 11 -186 9 -9 16 -25 16 -35 0 -24 -78 -163 -91 -163 -17 0 -58 53 -69 90
-5 19 -10 112 -10 206 0 155 -2 172 -19 188 -18 17 -19 14 -26 -119 -7 -133
-7 -138 16 -168 l23 -31 -44 -83 c-24 -46 -49 -83 -55 -83 -12 0 -45 34 -83
86 -18 24 -21 35 -14 55 6 14 13 98 17 187 7 146 6 167 -11 203 l-18 41 29 51
c28 52 45 77 50 77 2 0 22 -19 45 -42z m472 -50 c4 -10 13 -10 45 0 65 19 92
16 99 -13 5 -18 -1 -37 -20 -66 -28 -42 -53 -47 -49 -10 3 23 -4 25 -41 12
-33 -13 -26 -54 9 -45 38 9 39 -14 2 -51 -19 -19 -38 -46 -41 -60 -9 -35 -52
-75 -81 -75 -36 0 -37 35 -3 84 27 37 34 109 13 129 -21 21 -19 35 11 74 26
34 49 43 56 21z m908 -2 c0 -7 -7 -19 -15 -26 -12 -10 -15 -38 -15 -130 0
-133 -6 -144 -75 -155 -72 -12 -119 51 -93 127 12 37 65 98 85 98 7 0 13 9 13
21 0 37 38 79 71 79 18 0 29 -5 29 -14z m-334 -77 c4 -8 9 -8 17 0 18 18 46
13 61 -11 22 -35 15 -191 -10 -219 -17 -19 -19 -19 -31 -3 -8 11 -13 47 -13
91 0 42 -4 73 -10 73 -5 0 -10 -20 -10 -45 0 -52 -18 -102 -47 -127 -17 -16
-21 -16 -41 -2 -27 19 -28 48 -2 81 14 18 20 41 20 73 0 63 44 123 66 89z
m506 -1 c25 -21 41 -75 35 -124 -6 -57 -65 -124 -108 -124 -40 0 -69 41 -69
99 0 49 19 88 65 134 30 29 53 34 77 15z m158 1 c0 -6 7 -8 16 -5 8 3 24 1 35
-4 14 -8 25 -7 41 5 13 8 28 15 36 15 42 0 58 -177 21 -236 -11 -19 -28 -34
-36 -34 -13 0 -15 9 -10 54 6 62 -2 136 -14 136 -5 0 -9 -29 -9 -65 0 -53 -4
-68 -22 -85 -12 -11 -25 -20 -30 -20 -4 0 -8 28 -9 63 0 34 -4 71 -9 82 -10
24 -11 24 -16 -44 -3 -42 -10 -61 -31 -83 -33 -35 -61 -36 -69 -3 -4 16 1 34
15 54 14 19 21 44 21 74 0 34 6 53 26 76 26 32 44 40 44 20z m-906 -21 c10
-15 16 -45 16 -85 0 -51 3 -64 19 -72 16 -9 23 -5 42 24 29 42 49 45 49 7 0
-19 -12 -40 -39 -66 -43 -42 -80 -49 -110 -22 -16 15 -21 15 -46 2 -47 -25
-94 13 -77 61 5 16 7 43 4 61 -4 27 2 38 36 72 46 46 82 52 106 18z m445 -311
c-2 -1 -13 -9 -24 -17 -19 -14 -19 -14 -6 3 7 9 18 17 24 17 6 0 8 -1 6 -3z
m150 0 c-2 -1 -13 -9 -24 -17 -19 -14 -19 -14 -6 3 7 9 18 17 24 17 6 0 8 -1
6 -3z m-539 -22 c-10 -12 -9 -15 5 -15 10 0 16 -3 12 -6 -3 -4 -14 -4 -23 0
-13 5 -14 9 -4 21 7 8 15 15 17 15 3 0 0 -7 -7 -15z m113 -3 c-10 -10 -20 -17
-22 -16 -6 5 20 34 30 34 5 0 1 -8 -8 -18z m97 10 c0 -5 -7 -9 -15 -9 -8 0
-12 4 -9 9 3 4 9 8 15 8 5 0 9 -4 9 -8z m319 -53 c-23 -14 -35 9 -13 25 17 13
19 13 22 -1 2 -9 -2 -19 -9 -24z m-472 9 c-3 -8 -6 -5 -6 6 -1 11 2 17 5 13 3
-3 4 -12 1 -19z m233 1 c0 -6 -4 -7 -10 -4 -5 3 -10 1 -10 -6 0 -10 -3 -10
-12 -1 -10 10 -10 15 2 22 16 10 30 4 30 -11z m-93 -11 c-3 -8 -6 -5 -6 6 -1
11 2 17 5 13 3 -3 4 -12 1 -19z m263 14 c0 -10 -25 -31 -57 -50 -30 -16 -29
-8 4 28 25 29 53 40 53 22z m-345 -32 c3 -5 1 -10 -4 -10 -6 0 -11 5 -11 10 0
6 2 10 4 10 3 0 8 -4 11 -10z m158 -107 c7 2 11 12 11 21 -1 9 4 16 12 16 30
0 1 -39 -40 -54 -14 -5 -17 -2 -12 10 3 8 7 39 8 67 l2 52 3 -58 c3 -40 8 -57
16 -54z m177 13 c0 -7 -6 -19 -14 -25 -12 -10 -17 -8 -26 11 -10 22 -10 22 4
4 15 -18 16 -18 22 -1 4 10 0 29 -10 45 -9 16 -16 32 -16 37 0 4 9 -7 20 -25
11 -18 20 -39 20 -46z m-90 18 c0 -8 -4 -14 -10 -14 -5 0 -10 5 -10 11 0 5 -6
7 -12 3 -9 -5 -9 -3 1 9 15 18 31 14 31 -9z m40 5 c0 -6 -4 -7 -10 -4 -5 3
-10 11 -10 16 0 6 5 7 10 4 6 -3 10 -11 10 -16z m-320 -28 c-6 -12 -15 -21
-21 -21 -6 0 -3 7 5 16 9 8 16 23 17 32 0 10 3 12 5 5 3 -7 0 -21 -6 -32z
m480 21 c0 -16 -25 -40 -49 -47 -17 -5 -22 -4 -19 6 3 8 13 13 23 11 22 -4 39
19 22 30 -8 5 -6 8 6 8 9 0 17 -4 17 -8z m-190 -32 c-6 -11 -13 -20 -16 -20
-2 0 0 9 6 20 6 11 13 20 16 20 2 0 0 -9 -6 -20z m-210 -4 c0 -3 -4 -8 -10
-11 -5 -3 -10 -1 -10 4 0 6 5 11 10 11 6 0 10 -2 10 -4z m-1423 -48 c-3 -7 -5
-2 -5 12 0 14 2 19 5 13 2 -7 2 -19 0 -25z m-1257 -108 c-16 -16 -18 -25 -10
-45 11 -29 -4 -35 -18 -7 -14 27 7 72 34 72 10 0 8 -6 -6 -20z m95 -4 c13 -19
14 -29 5 -45 -15 -29 -19 -26 -18 10 1 20 -6 37 -17 45 -17 12 -17 14 -2 14 9
0 24 -11 32 -24z m298 -12 l42 -35 3 35 c2 20 6 36 10 36 4 0 6 -20 4 -45 -2
-25 -7 -45 -11 -45 -4 0 -22 13 -41 30 -46 38 -54 37 -47 -5 3 -19 2 -35 -3
-35 -4 0 -10 23 -12 50 -1 28 1 50 5 50 5 0 28 -16 50 -36z m332 -12 c0 -27
-4 -49 -10 -49 -6 0 -10 22 -10 49 0 26 5 48 10 48 6 0 10 -22 10 -48z m317 3
c-2 -25 -8 -45 -13 -45 -5 0 -9 20 -9 45 0 29 4 45 13 45 8 0 11 -14 9 -45z
m278 30 c7 -9 27 -25 43 -37 l30 -21 -5 36 c-2 22 0 37 7 37 6 0 9 -20 7 -50
l-4 -51 -43 36 c-24 19 -46 35 -49 35 -11 0 -6 -46 6 -58 9 -9 8 -12 -7 -12
-17 0 -20 7 -20 50 0 52 12 63 35 35z m355 -30 c0 -24 -4 -46 -10 -49 -6 -2
-10 16 -10 45 0 27 5 49 10 49 6 0 10 -20 10 -45z m55 35 c0 -5 -2 -10 -4 -10
-3 0 -8 5 -11 10 -3 6 -1 10 4 10 6 0 11 -4 11 -10z m-945 -80 c-3 -5 -11 -10
-16 -10 -6 0 -7 5 -4 10 3 6 11 10 16 10 6 0 7 -4 4 -10z m-732 -7 c-7 -2 -21
-2 -30 0 -10 3 -4 5 12 5 17 0 24 -2 18 -5z m1241 -69 c3 -8 2 -12 -4 -9 -6 3
-10 10 -10 16 0 14 7 11 14 -7z m70 -79 c-4 -8 -11 -15 -16 -15 -6 0 -5 6 2
15 7 8 14 15 16 15 2 0 1 -7 -2 -15z"/>
<path d="M327 1617 c-51 -31 -174 -141 -220 -197 -29 -35 -37 -54 -37 -84 l0
-39 43 37 c23 20 66 49 96 63 45 22 63 25 113 20 93 -8 94 -18 13 -93 -38 -35
-89 -78 -113 -96 -47 -36 -45 -24 -23 -153 15 -86 13 -249 -4 -366 -32 -214
-82 -403 -125 -476 -16 -28 -18 -37 -7 -53 6 -11 14 -20 18 -20 12 0 93 133
143 237 78 159 117 292 141 486 l6 48 97 -3 97 -3 -3 -162 -4 -162 45 -59 c74
-96 69 -96 120 10 l44 93 -31 40 -31 39 -3 275 c-3 263 3 331 28 331 4 0 12
11 18 24 10 22 6 29 -42 73 -90 82 -226 171 -306 200 -19 7 -35 13 -35 13 0 0
-17 -10 -38 -23z m79 -103 c18 -14 18 -15 -6 -8 -14 3 -32 10 -40 15 -12 7
-11 8 6 9 11 0 29 -7 40 -16z m49 -32 c-3 -3 -11 0 -18 7 -9 10 -8 11 6 5 10
-3 15 -9 12 -12z m180 -130 c-3 -4 -25 14 -48 38 l-42 43 48 -38 c26 -21 45
-40 42 -43z m-111 -34 c39 -34 39 -34 41 -116 l2 -82 -99 0 -99 0 7 58 c8 69
27 123 54 163 24 33 31 31 94 -23z"/>
<path d="M435 1326 c-19 -29 -45 -119 -45 -158 l0 -28 80 0 80 0 0 68 c0 62
-3 71 -27 94 -16 14 -38 31 -50 37 -19 10 -25 8 -38 -13z"/>
<path d="M1436 1061 c-23 -47 -26 -62 -17 -79 14 -27 15 -348 0 -390 -12 -35
-9 -41 43 -101 l36 -42 36 63 c49 88 49 91 25 119 -21 23 -21 30 -15 199 3 96
8 186 11 200 4 21 -2 31 -38 58 -24 17 -46 32 -49 32 -2 0 -17 -26 -32 -59z"/>
<path d="M1708 1032 l-77 -87 -1 -137 c0 -76 -5 -158 -12 -182 -14 -55 -10
-61 97 -135 l74 -50 70 134 c83 159 90 181 79 258 -14 102 -106 289 -141 286
-7 0 -47 -40 -89 -87z m73 -105 c50 -62 86 -227 60 -275 -15 -28 -48 -28 -78
0 -22 21 -23 28 -23 165 0 79 3 143 8 143 4 0 19 -15 33 -33z"/>
<path d="M1760 798 c0 -131 5 -148 46 -148 34 0 40 46 18 133 l-19 72 -5 -40
c-5 -38 -6 -36 -14 27 -13 112 -26 90 -26 -44z"/>
<path d="M1199 1393 c-10 -11 -10 -14 -1 -9 18 11 15 1 -5 -15 -11 -10 -14
-10 -9 -1 11 18 -4 15 -27 -5 -10 -10 -39 -29 -65 -43 -62 -34 -73 -53 -44
-80 21 -20 22 -28 24 -223 2 -283 0 -335 -13 -391 l-12 -50 34 -29 c19 -15 60
-46 91 -68 l58 -39 52 102 c102 198 100 195 93 277 -10 115 -72 290 -113 315
-5 3 -22 -13 -38 -34 -16 -22 -33 -40 -38 -40 -5 0 -7 51 -4 115 5 99 9 123
32 166 24 47 26 69 7 69 -5 0 -15 -8 -22 -17z m22 -456 c35 -44 59 -116 66
-198 9 -103 -27 -140 -82 -84 -24 23 -25 28 -25 170 0 80 3 145 8 145 4 0 19
-15 33 -33z"/>
<path d="M1197 829 c-7 -127 -2 -157 29 -171 40 -19 58 6 51 72 -8 72 -33 152
-55 181 -19 22 -19 21 -25 -82z"/>
<path d="M933 1388 c-4 -7 -8 -19 -10 -27 -1 -7 -7 -19 -14 -25 -8 -8 -8 -5 1
13 14 27 9 26 -47 -14 -42 -30 -42 -31 -35 -75 4 -25 6 -169 5 -320 -1 -265
-2 -276 -24 -316 l-22 -42 28 -33 c51 -62 97 -111 99 -107 16 19 86 145 86
154 0 7 -14 23 -31 35 l-31 22 4 373 c2 206 2 374 1 374 -1 0 -5 -6 -10 -12z
m-57 -134 c-4 -9 -9 -15 -11 -12 -3 3 -3 13 1 22 4 9 9 15 11 12 3 -3 3 -13
-1 -22z"/>
<path d="M1450 1363 c0 -5 -7 -51 -15 -103 -8 -52 -15 -101 -15 -108 0 -7 34
23 75 65 41 43 75 81 75 85 0 6 -104 68 -115 68 -3 0 -5 -3 -5 -7z"/>
<path d="M2013 1062 c-30 -54 -31 -59 -17 -85 12 -23 14 -61 11 -200 -3 -95
-8 -185 -11 -202 -6 -26 -1 -37 36 -78 l44 -48 42 79 42 79 -21 19 c-19 17
-20 27 -17 171 2 92 7 156 14 163 8 8 19 -1 39 -31 27 -42 27 -43 21 -168 -8
-157 4 -241 38 -281 l25 -30 25 42 c13 24 32 59 42 80 16 35 16 37 -5 65 -22
26 -22 34 -17 138 4 61 9 131 12 156 6 47 5 47 -62 119 l-68 71 -18 -35 c-20
-39 -37 -53 -47 -40 -3 5 -22 24 -41 41 l-36 33 -31 -58z"/>
<path d="M2610 1029 c-14 -6 -37 -8 -51 -5 -33 6 -68 -26 -51 -46 13 -16 25
-143 17 -169 -4 -11 -11 -19 -17 -19 -5 0 -7 8 -4 18 4 12 0 10 -14 -7 -23
-27 -26 -51 -7 -51 20 0 55 41 68 80 7 18 24 44 38 57 l26 22 -27 1 c-25 0
-28 4 -28 35 0 31 3 35 41 47 37 11 43 10 54 -6 13 -17 14 -17 24 3 26 48 -4
66 -69 40z"/>
<path d="M3407 1022 c-14 -15 -17 -40 -17 -131 0 -111 0 -112 -22 -109 -48 7
-74 118 -29 118 23 0 46 26 32 35 -6 3 -24 -4 -40 -16 -71 -52 -64 -169 9
-169 16 0 32 5 35 10 4 6 11 8 16 4 5 -3 17 0 25 7 13 10 14 31 8 124 -5 79
-3 114 5 119 13 8 15 26 3 26 -5 0 -16 -8 -25 -18z"/>
<path d="M3330 863 c0 -22 27 -63 41 -63 6 0 9 17 7 38 -2 30 -7 38 -25 40
-17 3 -23 -2 -23 -15z"/>
<path d="M3103 940 c-7 -11 -13 -52 -13 -92 0 -50 -3 -68 -10 -58 -8 13 -11
12 -23 -5 -31 -41 7 -61 43 -23 16 17 20 35 20 84 0 48 4 63 16 68 33 13 46
-14 42 -88 -2 -58 0 -71 12 -71 12 0 16 17 18 80 1 44 0 90 -3 103 -7 28 -36
29 -61 1 l-19 -21 -5 21 c-5 21 -5 21 -17 1z"/>
<path d="M3577 942 c-20 -22 -22 -33 -4 -27 29 11 57 -35 57 -95 0 -50 15 -45
30 12 12 44 1 92 -28 116 -22 17 -36 15 -55 -6z"/>
<path d="M3524 875 c-17 -42 -18 -66 -2 -100 14 -31 48 -41 80 -24 l23 14 -23
3 c-32 5 -54 43 -54 97 -1 25 -3 45 -5 45 -2 0 -11 -16 -19 -35z"/>
<path d="M3567 893 c-19 -18 3 -97 29 -107 27 -11 29 69 2 101 -12 14 -21 16
-31 6z"/>
<path d="M3889 933 c-13 -14 -19 -23 -12 -20 26 16 43 -23 43 -100 0 -66 2
-74 15 -63 19 16 22 179 3 198 -17 17 -21 15 -49 -15z"/>
<path d="M3763 930 c-7 -11 -13 -48 -13 -82 0 -34 -3 -58 -7 -55 -10 11 -33
-14 -33 -35 0 -27 28 -20 52 12 15 21 18 40 16 103 -3 67 -5 75 -15 57z"/>
<path d="M3805 936 c-20 -15 -20 -15 3 -31 19 -14 22 -25 22 -88 0 -67 1 -70
17 -54 22 21 29 123 11 156 -17 31 -29 35 -53 17z"/>
<path d="M2800 920 c-17 -17 -30 -36 -30 -43 0 -6 7 -1 16 11 17 24 59 30 67
9 3 -8 -7 -18 -24 -26 -32 -14 -69 -68 -69 -100 0 -17 6 -21 33 -21 18 0 38 5
45 12 9 9 16 8 30 -5 25 -23 64 -21 96 4 31 24 52 59 36 59 -6 0 -16 -11 -22
-25 -9 -21 -18 -25 -42 -23 -31 3 -31 3 -36 74 -8 107 -43 133 -100 74z m48
-141 c-18 -12 -24 -11 -42 7 -25 24 -19 43 17 52 30 8 32 7 35 -21 2 -17 -2
-34 -10 -38z"/>
<path d="M2817 814 c-4 -4 -4 -10 -1 -15 6 -10 34 0 34 12 0 10 -24 12 -33 3z"/>
<path d="M3370 565 c-7 -8 -8 -15 -2 -15 5 0 15 7 22 15 7 8 8 15 2 15 -5 0
-15 -7 -22 -15z"/>
</g>
</svg>
